Coordinates
version=1
nRows=15
nColumns=26
inDegrees=yes

Units are S.I. units (second, meters, Newtons, ...)
If the header above contains a line with 'inDegrees', this indicates whether rotational values are in degrees (yes) or radians (no).

endheader
time	pelvis_tilt	pelvis_list	pelvis_rotation	pelvis_tx	pelvis_ty	pelvis_tz	hip_flexion_r	hip_adduction_r	hip_rotation_r	knee_angle_r	knee_angle_r_beta	ankle_angle_r	subtalar_angle_r	mtp_angle_r	hip_flexion_l	hip_adduction_l	hip_rotation_l	knee_angle_l	knee_angle_l_beta	ankle_angle_l	subtalar_angle_l	mtp_angle_l	lumbar_extension	lumbar_bending	lumbar_rotation
      1.00800000	    -10.78089513	      9.41996035	     -2.45427053	      1.98004367	      0.96995865	      0.19264401	    -14.78356122	    -13.76987682	    -20.73317614	     23.81791651	      0.41570106	    -10.31229635	      0.00000000	     44.35745041	     60.94033464	      8.63273461	     -2.84709671	    112.07128696	      1.95601295	     23.87977073	      0.00000000	     50.98422700	     -2.31834416	    -10.78614057	     16.43847699
      1.01200000	    -11.50251826	     10.31289722	     -1.94066725	      2.00862594	      0.97098238	      0.19233455	    -15.87927719	    -14.54857742	    -21.87299819	     22.55618077	      0.39367962	    -13.83705399	      0.00000000	     45.52221345	     62.79461196	      9.04211657	     -4.14171797	    109.45598746	      1.91036737	     23.76254141	      0.00000000	     51.07520213	     -1.17799720	    -12.00508737	     16.93168979
      1.01600000	    -12.06328566	     11.04242025	     -1.33037006	      2.03712951	      0.97236141	      0.19227344	    -17.13409096	    -15.02275488	    -23.10933679	     21.31691171	      0.37205030	    -17.00068557	      0.00000000	     46.60022698	     64.30233946	      9.35950665	     -5.38371275	    106.70072218	      1.86227892	     23.52428447	      0.00000000	     50.99475596	     -0.30625993	    -13.11675243	     17.18050952
      1.02000000	    -12.53031152	     11.52641165	     -0.82301662	      2.06571339	      0.97374351	      0.19221884	    -18.32308031	    -15.24128964	    -24.14647580	     20.39669180	      0.35598943	    -19.40391956	      0.00000000	     47.39111196	     65.48450050	      9.51950641	     -6.41191688	    103.85199584	      1.81255926	     23.37542438	      0.00000000	     50.79976290	      0.46240874	    -13.93751284	     17.55555803
      1.02400000	    -12.91046891	     11.84790080	     -0.30519696	      2.09394529	      0.97522487	      0.19227683	    -19.43940615	    -15.23915102	    -24.76765629	     19.79206247	      0.34543666	    -20.90288007	      0.00000000	     47.20222264	     66.32127434	      9.57555170	     -7.34582687	    100.70893190	      1.75770245	     22.52001102	      0.00000000	     47.14126183	      1.06559760	    -14.62365313	     17.81787929
      1.02800000	    -13.29482740	     11.96190848	      0.12048870	      2.12202843	      0.97655665	      0.19233672	    -20.35969608	    -14.98891792	    -24.66523847	     19.49608977	      0.34027096	    -21.30512644	      0.00000000	     47.32982716	     67.03111329	      9.46045732	     -8.21159628	     97.60974012	      1.70361135	     22.54627588	      0.00000000	     47.09406565	      1.66341215	    -15.06220862	     18.18416161
      1.03200000	    -13.61054962	     12.03347254	      0.53915197	      2.14973863	      0.97780323	      0.19236613	    -21.16149818	    -14.70108520	    -24.03210609	     19.78457098	      0.34530590	    -21.52375109	      0.00000000	     47.33065984	     67.50288996	      9.34330700	     -9.10878429	     94.35810824	      1.64685966	     22.51110322	      0.00000000	     46.86394086	      2.12152799	    -15.42847835	     18.42794525
      1.03600000	    -13.76098273	     11.81796814	      0.94856945	      2.17731157	      0.97911517	      0.19218586	    -21.94571388	    -14.10941561	    -22.84970781	     20.50239153	      0.35783424	    -21.20631752	      0.00000000	     47.14046500	     67.66534645	      9.22634975	     -9.68554056	     91.03911114	      1.58893224	     22.62290414	      0.00000000	     46.71589274	      2.32767921	    -15.46824976	     18.62794094
      1.04000000	    -13.84669270	     11.51647881	      0.97988200	      2.20469146	      0.98036148	      0.19233185	    -22.33281124	    -13.60229751	    -21.03002991	     22.02682936	      0.38444070	    -20.06289610	      0.00000000	     46.54554039	     67.56256564	      8.68218096	    -10.44259620	     87.60366306	      1.52897236	     22.54780122	      0.00000000	     45.93882759	      2.57460779	    -15.36069116	     19.12824875
      1.04400000	    -14.09816322	     11.07414392	      1.25562204	      2.23193117	      0.98150268	      0.19210218	    -22.46203222	    -12.79775326	    -19.03822602	     23.75560139	      0.41461346	    -19.58378006	      0.00000000	     45.64766355	     67.35209451	      8.37892068	    -10.93123083	     83.53545205	      1.45796868	     20.37592929	      0.00000000	     35.75074372	      2.89610093	    -15.12467314	     19.34473729
      1.04800000	    -14.10049138	     10.52298263	      1.34690873	      2.25891739	      0.98283457	      0.19201006	    -22.52790652	    -11.90955799	    -16.64894930	     26.00090960	      0.45380148	    -19.49338324	      0.00000000	     45.52985143	     66.92639833	      7.96407899	    -11.34593234	     79.89827191	      1.39448791	     20.26973694	      0.00000000	     35.67889827	      2.92762111	    -14.73108339	     19.69451108
      1.05200000	    -14.05239735	      9.92989120	      1.44112895	      2.28579932	      0.98427829	      0.19168340	    -22.52528121	    -10.96992765	    -14.36139648	     28.47993029	      0.49706855	    -20.10458459	      0.00000000	     45.59415698	     66.30441639	      7.63910549	    -11.67266597	     76.13590948	      1.32882230	     20.10384821	      0.00000000	     35.59173837	      2.88197124	    -14.26290379	     20.03136879
      1.05600000	    -13.89660970	      9.28655700	      1.83488057	      2.31265882	      0.98585562	      0.19127558	    -22.62716472	     -9.79677269	    -12.51141354	     31.04133832	      0.54177356	    -21.05496027	      0.00000000	     45.67947908	     65.41354985	      7.65874532	    -11.64430457	     72.25986506	      1.26117256	     20.02042592	      0.00000000	     35.72572003	      2.60101591	    -13.82500918	     19.96952280
      1.06000000	    -13.91685823	      8.76561887	      1.85794459	      2.33937631	      0.98715731	      0.19108480	    -22.02981883	     -9.01980382	    -10.64799907	     34.62054817	      0.60424255	    -20.94829327	      0.00000000	     48.88885237	     64.50468112	      7.23667119	    -12.28683038	     67.99973948	      1.18681934	     17.61662479	      0.00000000	     28.67436078	      2.60953087	    -13.45592700	     20.36112336
      1.06400000	    -13.73747503	      8.28530548	      2.15084013	      2.36617167	      0.98853567	      0.19070743	    -21.79961793	     -8.14257161	     -9.40322291	     37.90989093	      0.66165242	    -21.89334270	      0.00000000	     48.98293632	     63.39472126	      7.22796869	    -12.64191490	     64.13298635	      1.11933177	     16.73006126	      0.00000000	     28.94115585	      2.31575129	    -13.14353058	     20.45038026
